Patient4_TMGait_0pt5_02_right_19_EMG.mot
version=1
nRows=20
nColumns=33
inDegrees=no
endheader
time	1LAddLong	2LGlutMax	3LGlutMed	4LIliopsoas	5LSemiMemb	6LBicFemLong	7LRecFem	8LVastMed	9LVastLat	10LGasMed	11LTibAnt	12lTibPost	13LPeroneusLong	14LSol	15LExtDigLong	16LFlexDigLong	17RAddLong	18RGlutMax	19RGlutMed	20RIliopsoas	21RSemiMemb	22RBicFemLong	23RRecFem	24RVastMed	25RVastLat	26RGasMed	27RTibAnt	28RTibPost	29RPeroneusLong	30RSol	31RExtDigLong	32RFlexDigLong
26.03	0.004272	-0.072479	0.099335	0.011444	0.004425	-0.33752	0.015106	-0.001678	0.078125	-0.27908	-0.003204	-0.00412	-0.46387	0.067139	-0.023499	-0.002136	-0.027466	-0.055084	0.17364	-0.020142	0.047607	0.007935	0.56961	-0.005493	0.06012	-0.009003	-1.2639	-0.002289	-0.1358	-0.033722	-0.003967	0.003052
26.031	0.0177	-0.058746	0.084991	0.033264	0.077667	-0.53909	0.032043	-0.000763	0.063171	-0.17609	0.009918	-0.018921	-0.62927	0.12604	0.022125	-0.008545	-0.025482	-0.059967	-0.077209	-0.01709	-0.001831	0.030365	0.51712	-0.050049	0.036926	-0.007324	-0.6543	-0.007324	-0.016937	-0.002441	-0.003815	0.003967
26.032	0.016632	-0.039673	0.006409	0.008698	0.18143	-0.4773	0.00885	-0.00412	0.063324	0.036774	-0.004883	-0.006561	-0.021973	0.13687	-0.029297	0.000458	-0.019226	-0.033722	-0.12299	-0.024872	0.039673	0.016937	0.327	-0.16708	0.021057	-0.000458	0.2272	-0.002136	0.088196	0.075531	-0.00473	-0.000458
26.033	0.009308	-0.033417	0.004425	-0.00824	0.15595	-0.13443	0.041504	0.003662	0.054016	0.16663	-0.007477	-0.008392	0.61356	0.056763	-0.027313	0.010223	0.01236	-0.03952	0.19699	-0.0383	0.03891	-0.01297	0.2002	-0.20477	0.002136	-0.012207	0.76431	-0.000458	0.035095	-0.046997	-0.006256	0.003815
26.034	0.006866	-0.010834	-0.007019	0.002136	0.097046	0.008087	0.034485	0.004578	0.055847	0.44968	0.006256	-0.028381	0.28351	-0.095062	0.001984	-0.002594	0.029449	-0.010681	0.21973	0.020142	0.06485	-0.038147	0.054169	-0.20691	0.01709	-0.018921	1.0713	-0.001984	-0.11032	-0.13443	-0.002441	-0.00351
26.035	0.008087	-0.037384	-0.013428	0.005646	0.067902	0.074463	0.043182	0.007324	0.040131	0.53024	0.02182	-0.026703	0.095978	-0.10437	0.041351	-0.023041	0.045471	-0.044861	0.054474	0.24689	0.068817	-0.047302	-0.04776	-0.17075	0.002594	-0.0177	0.89493	-0.007477	-0.16586	-0.11932	-0.006256	-0.007477
26.036	0.007782	-0.046234	-0.058136	0.027618	0.024261	0.096893	0.036163	0.009308	-0.000763	0.48248	0.007019	-0.022583	-0.046997	-0.16113	0.092468	-1.4095	0.02182	-0.055084	-0.15228	0.2446	-0.016327	0.011139	-0.15656	-0.12497	0.028229	-0.020294	0.1947	-0.005798	-0.11826	-0.088348	-0.00824	-0.002594
26.037	0.005951	-0.037537	0.057068	0.023804	-0.027618	0.04776	0.031281	0.014801	-0.055847	0.28168	-0.010834	-0.024261	0.074615	-0.20401	0.11673	0.7254	-0.035706	-0.082245	-0.11566	0.11719	-0.32867	0.068817	-0.23743	-0.071716	0.048676	-0.01358	-0.79056	-0.001984	0.00412	-0.10971	0.000153	-0.009918
26.038	0.00351	-0.030365	0.087585	0.013885	-0.056915	-0.065155	0.02533	0.021362	-0.093842	0.24506	0.021667	-0.11749	0.037384	-0.20111	0.18433	0.21988	-0.030518	-0.12344	-0.091095	0.036621	-0.25177	0.07843	-0.32944	-0.046539	0.022888	-0.015259	-0.53314	-0.002289	0.001221	-0.11826	-0.007324	0.002747
26.039	0.001526	-0.012665	0.067444	0.000153	-0.045471	-0.016479	0.028381	0.01297	-0.14297	0.099487	0.03418	0.12299	-0.40283	-0.15549	0.1944	0.050049	-0.013885	-0.13977	0.055542	0.03006	-0.092926	0.077209	-0.48584	-0.048981	-0.010376	-0.015259	-0.24933	-0.002289	-0.056152	-0.071259	-0.001221	-0.004272
26.04	-0.00412	-0.020905	0.030975	-0.014801	-0.051575	0.050201	0.043182	0.00885	-0.090942	-0.69855	0.003052	0.034027	-0.17014	-0.14282	0.046997	0.17349	-0.036011	-0.13931	0.1564	0.076904	0.18127	0.069122	-0.392	0.037689	-0.007629	-0.016937	-0.34409	-0.003204	-0.10727	-0.008087	0.006866	-0.002899
26.041	-0.008545	-0.043488	-0.037231	0.005341	-0.045319	0.10437	0.079498	0.010681	0	-0.91721	-0.048065	-0.5629	-0.10284	-0.059052	-0.006256	0.38635	-0.000458	-0.09079	0.36392	0.079803	0.12299	0.010223	-0.1738	-0.012665	0.002289	-0.015411	-0.19547	-0.003967	-0.11124	0.013885	-0.000458	-0.002289
26.042	-0.003662	-0.054626	-0.057831	0.005188	-0.016632	0.16022	0.069122	0.013428	-0.039215	-0.47211	-0.058136	0.44449	-0.47119	0.23102	0.000153	0.056305	0.043488	-0.000916	0.62607	0.001678	-0.089417	-0.061493	-0.099792	0.019684	0.027618	-0.016937	-0.31632	-0.007019	-0.12756	0.1384	-0.005188	-0.006714
26.043	-0.011749	-0.027771	-0.06546	0.031738	-0.040436	0.1506	0.088348	0.009613	-0.027313	0.35004	-0.082092	0.31281	-0.23209	0.80612	0.028687	-0.16617	0.048218	-0.052948	0.40451	-0.049896	-0.22812	-0.075378	-0.074921	-0.056305	-0.009003	-0.011292	-0.95459	0.000458	-0.059509	0.13138	-0.005188	-0.002899
26.044	0.00824	-0.035706	-0.030365	0.008087	-0.056458	0.047455	0.068665	0.007935	0.08606	0.83923	-0.001984	0.045166	0.43778	0.86365	0.009766	-0.061188	0.016937	-0.047455	0.21637	-0.077209	-0.19043	-0.035248	-0.098114	-0.048065	0.001373	-0.009155	-0.5806	-0.006409	0.030518	-0.037079	0.010376	0.000305
26.045	0.019379	-0.00473	-0.024719	-0.012207	0.075531	0.00412	0.070038	0.003815	0.056	0.65704	-0.026245	0.038757	0.24597	0.14404	-0.047607	-0.12772	-0.038147	-0.11551	-0.046082	-0.019379	0.18021	0.041809	-0.13901	-0.009155	0.02594	-0.012817	-0.010529	-0.000305	0.089417	-0.09964	-0.004883	0.002441
26.046	0.026245	-0.058136	-0.081329	0.006104	0.19943	-0.060272	0.06073	0.002136	0.011597	0.69748	0.008545	-0.23666	0.066833	-0.63309	-0.13534	-0.36102	-0.036926	-0.14328	-0.011902	0.03952	0.22705	0.069733	0.002594	0.015259	0.036316	-0.019073	-0.21164	-0.002594	0.29739	-0.094452	0.001373	0.000458
26.047	0.022125	-0.042877	-0.065002	0.015717	0.13992	-0.00412	0.06958	0.005798	-0.005493	0.15472	-0.012512	0.042267	0.11993	-0.88257	-0.112	0.1152	-0.026245	-0.10437	0.026398	-0.065613	0.26443	0.051575	0.049133	0.031281	0.019226	-0.022736	-0.25955	-0.005035	0.07431	-0.04303	-0.002289	0.009918
26.048	0.01709	0.017853	0.005951	-0.002747	0.06424	0.03952	0.056305	-0.000916	-0.010681	-0.67352	-0.007477	0.043488	0.037231	-0.57938	-0.020905	0.44937	0.005035	-0.13001	-0.043945	-0.10269	0.13916	0.042267	-0.091095	-0.04425	0.007324	-0.02243	-0.011597	-0.006256	-0.59128	-0.058136	-0.003204	0.003967
26.049	0.010681	-0.001221	0.071259	0.00946	0.016174	0.17044	0.073242	0.010376	-0.003204	-0.4892	-0.000458	-0.027771	0.035706	-0.38391	-0.067291	-0.045013	0.002289	-0.12543	-0.090485	-0.024261	-0.016479	0.068359	-0.13397	-0.0737	0.002747	-0.021667	0.11765	-0.008392	-0.34164	-0.04776	-0.005188	0.006409
